<svg xmlns="http://www.w3.org/2000/svg" xmlns:xlink="http://www.w3.org/1999/xlink" width="191" height="42" viewBox="0 0 191 42">
    <defs>
        <path id="a" d="M0 41.611h190.764V0H0z"/>
    </defs>
    <g fill="none" fill-rule="evenodd">
        <path fill="#85B028" d="M190.764 39.61c0 1.1-.834 2-1.855 2H67.43c-1.02 0-1.855-.9-1.855-2V11.408c0-1.1.835-2.002 1.855-2.002H188.91c1.02 0 1.855.902 1.855 2.002V39.61z"/>
        <path fill="#000" d="M70.515 2.001c0-1.1-.836-2.001-1.857-2.001H1.856C.836 0 0 .9 0 2.001v28.204c0 1.1.836 2 1.856 2h63.72v4.578l4.499-5.29-.013.003a2.07 2.07 0 0 0 .453-1.291V2z"/>
        <path fill="#FFF" d="M16.979 23.576l-2.341-6.277c-.574-1.524-1.017-2.883-1.325-4.075h-.067c-.273 1.17-.663 2.515-1.166 4.032l-2.093 6.32H7.279l4.677-14.162h2.632l2.342 6.276c.575 1.517 1.016 2.875 1.324 4.075h.066c.202-.925.591-2.27 1.17-4.033l2.091-6.318h2.708L19.61 23.576H16.98zM34.293 11.34c-.6 0-1.162.098-1.69.296a5.726 5.726 0 0 0-1.46.81c-.45.342-.857.742-1.224 1.201-.367.459-.685.95-.954 1.472a9.544 9.544 0 0 0-.662 1.623 9.216 9.216 0 0 0-.348 1.647c-.061.537-.04 1.008.063 1.412.101.408.275.748.521 1.023.247.274.561.48.947.618.382.138.824.207 1.319.207.599 0 1.161-.098 1.687-.296a5.75 5.75 0 0 0 1.463-.81 6.95 6.95 0 0 0 1.224-1.203c.367-.458.684-.948.954-1.469a9.61 9.61 0 0 0 .662-1.626c.171-.56.286-1.11.347-1.645.121-1.073-.073-1.885-.585-2.434-.51-.552-1.266-.826-2.264-.826m.436-2.191c.866 0 1.64.115 2.321.344.68.228 1.246.571 1.697 1.026.452.455.776 1.02.974 1.693.198.674.247 1.453.146 2.334-.062.552-.193 1.161-.39 1.831a11.85 11.85 0 0 1-.825 2.038 12.595 12.595 0 0 1-1.294 2.012 9.195 9.195 0 0 1-1.79 1.735c-.68.504-1.455.91-2.318 1.218-.863.307-1.823.46-2.883.46-.865 0-1.639-.114-2.32-.344-.68-.229-1.245-.571-1.697-1.026-.453-.456-.777-1.02-.975-1.694-.197-.675-.245-1.452-.146-2.335.064-.55.193-1.16.391-1.83.198-.67.474-1.35.825-2.038a12.54 12.54 0 0 1 1.293-2.011 9.229 9.229 0 0 1 1.79-1.736 8.874 8.874 0 0 1 2.32-1.217c.863-.307 1.823-.46 2.881-.46M51.288 9.413h2.897l-.446 5.695a115.943 115.943 0 0 1-.473 4.773h.078a97.306 97.306 0 0 1 3.172-5.365l3.287-5.103h2.995l-9.33 14.162H50.66l.424-5.016c.149-1.715.331-3.477.543-5.282h-.066c-.647 1.453-1.509 3.196-2.59 5.228l-2.718 5.07H43.49l-.437-14.162h2.775l.06 5.133c.019 2.201-.003 3.981-.06 5.335h.067c.55-1.32 1.364-2.996 2.447-5.028l2.946-5.44z"/>
        <mask id="b" fill="#fff">
            <use xlink:href="#a"/>
        </mask>
        <path fill="#FFF" d="M79.836 32.88h2.514V18.143h-2.514zM93.834 24.994c.985 1.506 1.785 2.844 2.401 4.01h.061c-.082-1.915-.123-3.311-.123-4.186v-6.677h2.514v14.743h-2.638l-4.473-6.789a52.054 52.054 0 0 1-2.441-4.085h-.062c.082 1.805.123 3.204.123 4.197v6.677h-2.514V18.14h2.636l4.516 6.853zM108.632 32.882h-2.513v-12.48h-4.432v-2.26h11.366v2.26h-4.42zM118.615 30.624h6.75v2.258H116.1v-14.74h9.264v2.259h-6.75v3.811h6.75v2.259h-6.75zM132.96 24.918c.576 0 1.062-.028 1.463-.082.399-.057.736-.138 1.01-.249.506-.205.856-.486 1.05-.842.196-.356.294-.766.294-1.23a2.29 2.29 0 0 0-.231-1.051c-.154-.306-.416-.545-.784-.723a3.176 3.176 0 0 0-.903-.258 9.186 9.186 0 0 0-1.345-.083h-1.796v4.518h1.242zm6.402-2.347c0 1.028-.265 1.901-.795 2.617-.53.717-1.349 1.247-2.456 1.591v.045l4.081 6.059h-3.015l-3.734-5.707h-1.725v5.707h-2.512V18.142h4.175c.692 0 1.334.043 1.929.127.596.086 1.105.212 1.528.38.807.33 1.43.821 1.868 1.47.437.65.656 1.468.656 2.452zM148.579 21.69a89.058 89.058 0 0 1-1.285 3.865l-.468 1.311h3.547l-.47-1.311c-.371-1.045-.8-2.332-1.283-3.866h-.041zm2.605 7.435h-5.17l-1.344 3.756h-2.677l5.447-14.74h2.298l5.447 14.74h-2.658l-1.343-3.756zM177.022 32.882h-2.514v-12.48h-4.432v-2.26h11.368v2.26h-4.422zM167.325 30.161a6.081 6.081 0 0 1-2.852.705c-1.538 0-2.936-.292-3.97-1.205-1.108-.975-1.798-2.621-1.798-4.15 0-1.515.677-3.148 1.766-4.122 1.037-.928 2.448-1.232 4.002-1.232 1.038 0 2.01.258 2.852.704v-2.624c-.891-.3-1.85-.474-2.852-.474-1.959 0-3.854.429-5.278 1.477-1.929 1.419-3.071 3.81-3.071 6.27 0 2.422 1.021 4.961 2.896 6.381 1.44 1.09 3.451 1.37 5.453 1.37a8.92 8.92 0 0 0 2.852-.474V30.16z" mask="url(#b)"/>
    </g>
</svg>
